<?xml version="1.0" encoding="UTF-8"?>
<!--Generator: Apple Native CoreSVG 232.5-->
<!DOCTYPE svg
PUBLIC "-//W3C//DTD SVG 1.1//EN"
       "http://www.w3.org/Graphics/SVG/1.1/DTD/svg11.dtd">
<svg version="1.1" xmlns="http://www.w3.org/2000/svg" xmlns:xlink="http://www.w3.org/1999/xlink" width="34.1992" height="21.3379">
 <g>
  <rect height="21.3379" opacity="0" width="34.1992" x="0" y="0"/>
  <path d="M16.9238 21.3379C26.875 21.3379 33.8379 13.2031 33.8379 10.6738C33.8379 8.14453 26.8457 0.0195312 16.9238 0.0195312C7.08984 0.0195312 0 8.14453 0 10.6738C0 13.2031 7.07031 21.3379 16.9238 21.3379ZM16.9238 17.666C13.0176 17.666 9.91211 14.4824 9.90234 10.6738C9.89258 6.76758 13.0176 3.68164 16.9238 3.68164C20.8008 3.68164 23.9355 6.76758 23.9355 10.6738C23.9355 14.4824 20.8008 17.666 16.9238 17.666ZM16.9336 13.1152C18.2715 13.1152 19.3848 12.002 19.3848 10.6738C19.3848 9.33594 18.2715 8.23242 16.9336 8.23242C15.5762 8.23242 14.4531 9.33594 14.4531 10.6738C14.4531 12.002 15.5762 13.1152 16.9336 13.1152Z" fill="#24a337" fill-opacity="0.85"/>
 </g>
</svg>
